<svg width="134" height="133" viewBox="0 0 134 133" fill="none" xmlns="http://www.w3.org/2000/svg">
<g id="Vector" filter="url(#filter0_d_486_317)">
<path fill-rule="evenodd" clip-rule="evenodd" d="M53.2814 28.5725C54.0263 28.5727 54.7509 28.813 55.3456 29.257C55.9403 29.7011 56.3726 30.3248 56.5772 31.0337L60.2936 43.9095C61.0938 46.6824 62.5949 49.2077 64.6553 51.2469C66.7156 53.2861 69.2672 54.7718 72.0689 55.5638L85.0785 59.2419C85.7943 59.4449 86.424 59.873 86.8721 60.4615C87.3203 61.05 87.5628 61.7669 87.5628 62.5039C87.5628 63.2408 87.3203 63.9577 86.8721 64.5462C86.424 65.1347 85.7943 65.5628 85.0785 65.7658L72.0689 69.4439C69.2672 70.2359 66.7156 71.7216 64.6553 73.7608C62.5949 75.8 61.0938 78.3253 60.2936 81.0982L56.5772 93.974C56.3721 94.6825 55.9396 95.3056 55.345 95.7492C54.7504 96.1928 54.026 96.4327 53.2814 96.4327C52.5368 96.4327 51.8124 96.1928 51.2178 95.7492C50.6232 95.3056 50.1906 94.6825 49.9856 93.974L46.2692 81.0982C45.469 78.3253 43.9679 75.8 41.9075 73.7608C39.8471 71.7216 37.2956 70.2359 34.4938 69.4439L21.4843 65.7658C20.7684 65.5628 20.1388 65.1347 19.6906 64.5462C19.2424 63.9577 19 63.2408 19 62.5039C19 61.7669 19.2424 61.05 19.6906 60.4615C20.1388 59.873 20.7684 59.4449 21.4843 59.2419L34.4938 55.5638C37.2956 54.7718 39.8471 53.2861 41.9075 51.2469C43.9679 49.2077 45.469 46.6824 46.2692 43.9095L49.9856 31.0337C50.1902 30.3248 50.6225 29.7011 51.2172 29.257C51.8118 28.813 52.5364 28.5727 53.2814 28.5725ZM94.422 15C95.1868 14.9996 95.9299 15.2523 96.5329 15.7179C97.1359 16.1836 97.5642 16.8354 97.7498 17.5697L98.9292 22.2568C100.008 26.5095 103.363 29.8303 107.66 30.898L112.396 32.0652C113.139 32.2474 113.8 32.6708 114.272 33.2677C114.744 33.8647 115 34.6008 115 35.3588C115 36.1168 114.744 36.8529 114.272 37.4499C113.8 38.0468 113.139 38.4702 112.396 38.6524L107.66 39.8196C103.363 40.8873 100.008 44.2081 98.9292 48.4608L97.7498 53.1479C97.5657 53.8836 97.138 54.5371 96.5348 55.0043C95.9317 55.4714 95.1879 55.7252 94.422 55.7252C93.6562 55.7252 92.9124 55.4714 92.3092 55.0043C91.7061 54.5371 91.2783 53.8836 91.0942 53.1479L89.9148 48.4608C89.3874 46.3726 88.2964 44.4655 86.7585 42.9435C85.2207 41.4214 83.2938 40.3417 81.1839 39.8196L76.4481 38.6524C75.7047 38.4702 75.0444 38.0468 74.5724 37.4499C74.1005 36.8529 73.844 36.1168 73.844 35.3588C73.844 34.6008 74.1005 33.8647 74.5724 33.2677C75.0444 32.6708 75.7047 32.2474 76.4481 32.0652L81.1839 30.898C83.2938 30.3759 85.2207 29.2962 86.7585 27.7741C88.2964 26.2521 89.3874 24.345 89.9148 22.2568L91.0942 17.5697C91.2798 16.8354 91.7082 16.1836 92.3112 15.7179C92.9142 15.2523 93.6572 14.9996 94.422 15ZM87.5652 76.0764C88.2853 76.076 88.9872 76.2999 89.5714 76.7165C90.1555 77.1331 90.5924 77.7212 90.8199 78.3973L92.621 83.7494C93.3067 85.7717 94.9066 87.3642 96.9545 88.0383L102.362 89.8254C103.043 90.0516 103.635 90.4838 104.054 91.061C104.474 91.6382 104.699 92.3311 104.699 93.042C104.699 93.753 104.474 94.4459 104.054 95.0231C103.635 95.6003 103.043 96.0325 102.362 96.2587L96.9545 98.0458C94.9111 98.7244 93.3021 100.308 92.621 102.335L90.8154 107.687C90.5867 108.361 90.15 108.947 89.5669 109.362C88.9837 109.777 88.2835 110 87.5652 110C86.8469 110 86.1468 109.777 85.5636 109.362C84.9805 108.947 84.5437 108.361 84.3151 107.687L82.5095 102.335C82.1728 101.336 81.606 100.429 80.8539 99.6844C80.1017 98.94 79.185 98.379 78.176 98.0458L72.7683 96.2587C72.0874 96.0325 71.4954 95.6003 71.0761 95.0231C70.6567 94.4459 70.4311 93.753 70.4311 93.042C70.4311 92.3311 70.6567 91.6382 71.0761 91.061C71.4954 90.4838 72.0874 90.0516 72.7683 89.8254L78.176 88.0383C80.2194 87.3597 81.8284 85.7762 82.5095 83.7494L84.3151 78.3973C84.5424 77.7219 84.9786 77.1344 85.5618 76.7179C86.1451 76.3013 86.846 76.0769 87.5652 76.0764Z" fill="#987AD7"/>
</g>
<defs>
<filter id="filter0_d_486_317" x="0" y="0" width="134" height="133" filterUnits="userSpaceOnUse" color-interpolation-filters="sRGB">
<feFlood flood-opacity="0" result="BackgroundImageFix"/>
<feColorMatrix in="SourceAlpha" type="matrix" values="0 0 0 0 0 0 0 0 0 0 0 0 0 0 0 0 0 0 127 0" result="hardAlpha"/>
<feOffset dy="4"/>
<feGaussianBlur stdDeviation="9.5"/>
<feComposite in2="hardAlpha" operator="out"/>
<feColorMatrix type="matrix" values="0 0 0 0 0.169285 0 0 0 0 0.0684568 0 0 0 0 0.410661 0 0 0 1 0"/>
<feBlend mode="normal" in2="BackgroundImageFix" result="effect1_dropShadow_486_317"/>
<feBlend mode="normal" in="SourceGraphic" in2="effect1_dropShadow_486_317" result="shape"/>
</filter>
</defs>
</svg>
