<svg width="108" height="19" viewBox="0 0 108 19" fill="none" xmlns="http://www.w3.org/2000/svg">
<path d="M8.988 18.36C7.26 18.36 5.78 17.984 4.548 17.232C3.316 16.472 2.368 15.416 1.704 14.064C1.048 12.712 0.72 11.144 0.72 9.36C0.72 7.576 1.048 6.008 1.704 4.656C2.368 3.304 3.316 2.252 4.548 1.5C5.78 0.739999 7.26 0.36 8.988 0.36C10.98 0.36 12.64 0.86 13.968 1.86C15.296 2.852 16.228 4.192 16.764 5.88L13.848 6.684C13.512 5.556 12.94 4.676 12.132 4.044C11.324 3.404 10.276 3.084 8.988 3.084C7.828 3.084 6.86 3.344 6.084 3.864C5.316 4.384 4.736 5.116 4.344 6.06C3.96 6.996 3.764 8.096 3.756 9.36C3.756 10.624 3.948 11.728 4.332 12.672C4.724 13.608 5.308 14.336 6.084 14.856C6.86 15.376 7.828 15.636 8.988 15.636C10.276 15.636 11.324 15.316 12.132 14.676C12.94 14.036 13.512 13.156 13.848 12.036L16.764 12.84C16.228 14.528 15.296 15.872 13.968 16.872C12.64 17.864 10.98 18.36 8.988 18.36ZM25.1228 18.36C23.8268 18.36 22.6948 18.068 21.7268 17.484C20.7588 16.9 20.0068 16.096 19.4708 15.072C18.9428 14.04 18.6788 12.856 18.6788 11.52C18.6788 10.16 18.9508 8.968 19.4948 7.944C20.0388 6.92 20.7948 6.12 21.7628 5.544C22.7308 4.968 23.8508 4.68 25.1228 4.68C26.4268 4.68 27.5628 4.972 28.5308 5.556C29.4988 6.14 30.2508 6.948 30.7868 7.98C31.3228 9.004 31.5908 10.184 31.5908 11.52C31.5908 12.864 31.3188 14.052 30.7748 15.084C30.2388 16.108 29.4868 16.912 28.5188 17.496C27.5508 18.072 26.4188 18.36 25.1228 18.36ZM25.1228 15.648C26.2748 15.648 27.1308 15.264 27.6908 14.496C28.2508 13.728 28.5308 12.736 28.5308 11.52C28.5308 10.264 28.2468 9.264 27.6788 8.52C27.1108 7.768 26.2588 7.392 25.1228 7.392C24.3468 7.392 23.7068 7.568 23.2028 7.92C22.7068 8.264 22.3388 8.748 22.0988 9.372C21.8588 9.988 21.7388 10.704 21.7388 11.52C21.7388 12.776 22.0228 13.78 22.5908 14.532C23.1668 15.276 24.0108 15.648 25.1228 15.648ZM39.4307 18.36C38.2387 18.36 37.1987 18.06 36.3107 17.46C35.4227 16.86 34.7347 16.044 34.2467 15.012C33.7587 13.98 33.5147 12.816 33.5147 11.52C33.5147 10.208 33.7587 9.04 34.2467 8.016C34.7427 6.984 35.4427 6.172 36.3467 5.58C37.2507 4.98 38.3147 4.68 39.5387 4.68C40.7707 4.68 41.8027 4.98 42.6347 5.58C43.4747 6.172 44.1107 6.984 44.5427 8.016C44.9747 9.048 45.1907 10.216 45.1907 11.52C45.1907 12.808 44.9747 13.972 44.5427 15.012C44.1107 16.044 43.4667 16.86 42.6107 17.46C41.7547 18.06 40.6947 18.36 39.4307 18.36ZM39.8747 15.768C40.6507 15.768 41.2747 15.592 41.7467 15.24C42.2267 14.88 42.5747 14.38 42.7907 13.74C43.0147 13.1 43.1267 12.36 43.1267 11.52C43.1267 10.672 43.0147 9.932 42.7907 9.3C42.5747 8.66 42.2347 8.164 41.7707 7.812C41.3067 7.452 40.7067 7.272 39.9707 7.272C39.1947 7.272 38.5547 7.464 38.0507 7.848C37.5467 8.224 37.1747 8.736 36.9347 9.384C36.6947 10.024 36.5747 10.736 36.5747 11.52C36.5747 12.312 36.6907 13.032 36.9227 13.68C37.1627 14.32 37.5267 14.828 38.0147 15.204C38.5027 15.58 39.1227 15.768 39.8747 15.768ZM43.1267 18V8.904H42.7667V0.719999H45.6827V18H43.1267ZM54.9392 18.36C53.6272 18.36 52.4752 18.076 51.4832 17.508C50.4912 16.94 49.7152 16.152 49.1552 15.144C48.6032 14.136 48.3272 12.976 48.3272 11.664C48.3272 10.248 48.5992 9.02 49.1432 7.98C49.6872 6.932 50.4432 6.12 51.4112 5.544C52.3792 4.968 53.4992 4.68 54.7712 4.68C56.1152 4.68 57.2552 4.996 58.1912 5.628C59.1352 6.252 59.8352 7.136 60.2912 8.28C60.7472 9.424 60.9192 10.772 60.8072 12.324H57.9392V11.268C57.9312 9.86 57.6832 8.832 57.1952 8.184C56.7072 7.536 55.9392 7.212 54.8912 7.212C53.7072 7.212 52.8272 7.58 52.2512 8.316C51.6752 9.044 51.3872 10.112 51.3872 11.52C51.3872 12.832 51.6752 13.848 52.2512 14.568C52.8272 15.288 53.6672 15.648 54.7712 15.648C55.4832 15.648 56.0952 15.492 56.6072 15.18C57.1272 14.86 57.5272 14.4 57.8072 13.8L60.6632 14.664C60.1672 15.832 59.3992 16.74 58.3592 17.388C57.3272 18.036 56.1872 18.36 54.9392 18.36ZM50.4752 12.324V10.14H59.3912V12.324H50.4752ZM63.4847 18V5.04H66.0407V8.196L65.7287 7.788C65.8887 7.356 66.1007 6.964 66.3647 6.612C66.6367 6.252 66.9607 5.956 67.3367 5.724C67.6567 5.508 68.0087 5.34 68.3927 5.22C68.7847 5.092 69.1847 5.016 69.5927 4.992C70.0007 4.96 70.3967 4.976 70.7807 5.04V7.74C70.3967 7.628 69.9527 7.592 69.4487 7.632C68.9527 7.672 68.5047 7.812 68.1047 8.052C67.7047 8.268 67.3767 8.544 67.1207 8.88C66.8727 9.216 66.6887 9.6 66.5687 10.032C66.4487 10.456 66.3887 10.916 66.3887 11.412V18H63.4847ZM80.0306 7.308V5.04H83.2706V7.308H80.0306ZM74.1986 18V4.836C74.1986 4.508 74.2106 4.148 74.2346 3.756C74.2586 3.356 74.3266 2.96 74.4386 2.568C74.5506 2.176 74.7546 1.82 75.0506 1.5C75.4186 1.092 75.8146 0.811999 76.2386 0.659999C76.6706 0.5 77.0946 0.411999 77.5106 0.395998C77.9266 0.371999 78.2906 0.36 78.6026 0.36H80.2226V2.712H78.7226C78.1706 2.712 77.7586 2.852 77.4866 3.132C77.2226 3.404 77.0906 3.764 77.0906 4.212V18H74.1986ZM72.1106 7.308V5.04H80.2226V7.308H72.1106ZM83.1266 18V0.36H86.0186V18H83.1266ZM89.8575 3.072V0.42H92.7495V3.072H89.8575ZM89.8575 18V5.04H92.7495V18H89.8575ZM94.9041 18L99.6441 11.448L95.0001 5.04H98.4081L101.324 9.18L104.192 5.04H107.6L102.956 11.448L107.72 18H104.312L101.324 13.716L98.3121 18H94.9041Z" fill="white"/>
</svg>
