<svg width="140" height="35" viewBox="0 0 140 35" fill="none" xmlns="http://www.w3.org/2000/svg">
<path d="M40.988 27.36C39.26 27.36 37.78 26.984 36.548 26.232C35.316 25.472 34.368 24.416 33.704 23.064C33.048 21.712 32.72 20.144 32.72 18.36C32.72 16.576 33.048 15.008 33.704 13.656C34.368 12.304 35.316 11.252 36.548 10.5C37.78 9.74 39.26 9.36 40.988 9.36C42.98 9.36 44.64 9.86 45.968 10.86C47.296 11.852 48.228 13.192 48.764 14.88L45.848 15.684C45.512 14.556 44.94 13.676 44.132 13.044C43.324 12.404 42.276 12.084 40.988 12.084C39.828 12.084 38.86 12.344 38.084 12.864C37.316 13.384 36.736 14.116 36.344 15.06C35.96 15.996 35.764 17.096 35.756 18.36C35.756 19.624 35.948 20.728 36.332 21.672C36.724 22.608 37.308 23.336 38.084 23.856C38.86 24.376 39.828 24.636 40.988 24.636C42.276 24.636 43.324 24.316 44.132 23.676C44.94 23.036 45.512 22.156 45.848 21.036L48.764 21.84C48.228 23.528 47.296 24.872 45.968 25.872C44.64 26.864 42.98 27.36 40.988 27.36ZM57.1228 27.36C55.8268 27.36 54.6948 27.068 53.7268 26.484C52.7588 25.9 52.0068 25.096 51.4708 24.072C50.9428 23.04 50.6788 21.856 50.6788 20.52C50.6788 19.16 50.9508 17.968 51.4948 16.944C52.0388 15.92 52.7948 15.12 53.7628 14.544C54.7308 13.968 55.8508 13.68 57.1228 13.68C58.4268 13.68 59.5628 13.972 60.5308 14.556C61.4988 15.14 62.2508 15.948 62.7868 16.98C63.3228 18.004 63.5908 19.184 63.5908 20.52C63.5908 21.864 63.3188 23.052 62.7748 24.084C62.2388 25.108 61.4868 25.912 60.5188 26.496C59.5508 27.072 58.4188 27.36 57.1228 27.36ZM57.1228 24.648C58.2748 24.648 59.1308 24.264 59.6908 23.496C60.2508 22.728 60.5308 21.736 60.5308 20.52C60.5308 19.264 60.2468 18.264 59.6788 17.52C59.1108 16.768 58.2588 16.392 57.1228 16.392C56.3468 16.392 55.7068 16.568 55.2028 16.92C54.7068 17.264 54.3388 17.748 54.0988 18.372C53.8588 18.988 53.7388 19.704 53.7388 20.52C53.7388 21.776 54.0228 22.78 54.5908 23.532C55.1668 24.276 56.0108 24.648 57.1228 24.648ZM71.4307 27.36C70.2387 27.36 69.1987 27.06 68.3107 26.46C67.4227 25.86 66.7347 25.044 66.2467 24.012C65.7587 22.98 65.5147 21.816 65.5147 20.52C65.5147 19.208 65.7587 18.04 66.2467 17.016C66.7427 15.984 67.4427 15.172 68.3467 14.58C69.2507 13.98 70.3147 13.68 71.5387 13.68C72.7707 13.68 73.8027 13.98 74.6347 14.58C75.4747 15.172 76.1107 15.984 76.5427 17.016C76.9747 18.048 77.1907 19.216 77.1907 20.52C77.1907 21.808 76.9747 22.972 76.5427 24.012C76.1107 25.044 75.4667 25.86 74.6107 26.46C73.7547 27.06 72.6947 27.36 71.4307 27.36ZM71.8747 24.768C72.6507 24.768 73.2747 24.592 73.7467 24.24C74.2267 23.88 74.5747 23.38 74.7907 22.74C75.0147 22.1 75.1267 21.36 75.1267 20.52C75.1267 19.672 75.0147 18.932 74.7907 18.3C74.5747 17.66 74.2347 17.164 73.7707 16.812C73.3067 16.452 72.7067 16.272 71.9707 16.272C71.1947 16.272 70.5547 16.464 70.0507 16.848C69.5467 17.224 69.1747 17.736 68.9347 18.384C68.6947 19.024 68.5747 19.736 68.5747 20.52C68.5747 21.312 68.6907 22.032 68.9227 22.68C69.1627 23.32 69.5267 23.828 70.0147 24.204C70.5027 24.58 71.1227 24.768 71.8747 24.768ZM75.1267 27V17.904H74.7667V9.72H77.6827V27H75.1267ZM86.9392 27.36C85.6272 27.36 84.4752 27.076 83.4832 26.508C82.4912 25.94 81.7152 25.152 81.1552 24.144C80.6032 23.136 80.3272 21.976 80.3272 20.664C80.3272 19.248 80.5992 18.02 81.1432 16.98C81.6872 15.932 82.4432 15.12 83.4112 14.544C84.3792 13.968 85.4992 13.68 86.7712 13.68C88.1152 13.68 89.2552 13.996 90.1912 14.628C91.1352 15.252 91.8352 16.136 92.2912 17.28C92.7472 18.424 92.9192 19.772 92.8072 21.324H89.9392V20.268C89.9312 18.86 89.6832 17.832 89.1952 17.184C88.7072 16.536 87.9392 16.212 86.8912 16.212C85.7072 16.212 84.8272 16.58 84.2512 17.316C83.6752 18.044 83.3872 19.112 83.3872 20.52C83.3872 21.832 83.6752 22.848 84.2512 23.568C84.8272 24.288 85.6672 24.648 86.7712 24.648C87.4832 24.648 88.0952 24.492 88.6072 24.18C89.1272 23.86 89.5272 23.4 89.8072 22.8L92.6632 23.664C92.1672 24.832 91.3992 25.74 90.3592 26.388C89.3272 27.036 88.1872 27.36 86.9392 27.36ZM82.4752 21.324V19.14H91.3912V21.324H82.4752ZM95.4847 27V14.04H98.0407V17.196L97.7287 16.788C97.8887 16.356 98.1007 15.964 98.3647 15.612C98.6367 15.252 98.9607 14.956 99.3367 14.724C99.6567 14.508 100.009 14.34 100.393 14.22C100.785 14.092 101.185 14.016 101.593 13.992C102.001 13.96 102.397 13.976 102.781 14.04V16.74C102.397 16.628 101.953 16.592 101.449 16.632C100.953 16.672 100.505 16.812 100.105 17.052C99.7047 17.268 99.3767 17.544 99.1207 17.88C98.8727 18.216 98.6887 18.6 98.5687 19.032C98.4487 19.456 98.3887 19.916 98.3887 20.412V27H95.4847ZM112.031 16.308V14.04H115.271V16.308H112.031ZM106.199 27V13.836C106.199 13.508 106.211 13.148 106.235 12.756C106.259 12.356 106.327 11.96 106.439 11.568C106.551 11.176 106.755 10.82 107.051 10.5C107.419 10.092 107.815 9.812 108.239 9.66C108.671 9.5 109.095 9.412 109.511 9.396C109.927 9.372 110.291 9.36 110.603 9.36H112.223V11.712H110.723C110.171 11.712 109.759 11.852 109.487 12.132C109.223 12.404 109.091 12.764 109.091 13.212V27H106.199ZM104.111 16.308V14.04H112.223V16.308H104.111ZM115.127 27V9.36H118.019V27H115.127ZM121.858 12.072V9.42H124.75V12.072H121.858ZM121.858 27V14.04H124.75V27H121.858ZM126.904 27L131.644 20.448L127 14.04H130.408L133.324 18.18L136.192 14.04H139.6L134.956 20.448L139.72 27H136.312L133.324 22.716L130.312 27H126.904Z" fill="white"/>
<rect y="6" width="24" height="24" rx="4" fill="url(#paint0_linear_532_4)"/>
<rect x="7.5" y="0.5" width="21" height="22" rx="2.5" stroke="white"/>
<defs>
<linearGradient id="paint0_linear_532_4" x1="0" y1="18" x2="24" y2="18" gradientUnits="userSpaceOnUse">
<stop stop-color="#3A198A"/>
<stop offset="1" stop-color="#9D7FDB"/>
</linearGradient>
</defs>
</svg>
